<svg viewBox="0 0 44 30" xmlns="http://www.w3.org/2000/svg" xmlns:xlink="http://www.w3.org/1999/xlink" width="44.000000" height="30.000000" fill="none" customFrame="#000000">
	<path id="Форма 1" d="M9.68966 29C6.49022 29 3.89655 26.7208 3.89655 23.909C3.89655 21.0974 6.49022 18.8182 9.68966 18.8182C12.8891 18.8182 15.4828 21.0974 15.4828 23.909C15.4828 26.7208 12.8891 29 9.68966 29ZM15.4828 23.909L28.5172 23.909L29.9655 23.909M3.89655 23.909L1 23.909L1 3C1 1.89542 2.04468 1 3.33333 1L28.5172 1L28.5172 23.909M35.7587 29C32.5593 29 29.9655 26.7208 29.9655 23.909C29.9655 21.0974 32.5593 18.8182 35.7587 18.8182C38.958 18.8182 41.5517 21.0974 41.5517 23.909C41.5517 26.7208 38.958 29 35.7587 29ZM41.5517 23.909L43 23.909L43 13.7273L35.7587 7.36364L28.5172 7.36364L28.5172 23.909" fill-rule="nonzero" stroke="rgb(0,0,0)" stroke-linecap="round" stroke-linejoin="round" stroke-width="2" />
</svg>
