<svg viewBox="0 0 18 18" xmlns="http://www.w3.org/2000/svg" xmlns:xlink="http://www.w3.org/1999/xlink" width="18.000000" height="18.000000" fill="none" customFrame="#000000">
	<path d="M14 0C16.2091 0 18 1.79086 18 4L18 14C18 16.2091 16.2091 18 14 18L4 18C1.79086 18 0 16.2091 0 14L0 4C0 1.79086 1.79086 0 4 0L14 0ZM15.5797 2.78986C15.5797 3.2261 15.226 3.57972 14.79 3.57972C14.3537 3.57972 14 3.2261 14 2.78986C14 2.35362 14.3537 2 14.79 2C15.226 2 15.5797 2.35362 15.5797 2.78986ZM11.5536 4.31201L3 4.31201L3 13.541L5.38072 13.541L5.38072 10.5385L9.94264 10.5385L12.0241 13.541L14.6899 13.541L12.3947 10.5247C13.1075 10.414 13.6207 10.1511 13.9344 9.73599C14.2479 9.32092 14.4048 8.65672 14.4048 7.77121L14.4048 7.07937C14.4048 6.55356 14.3479 6.13849 14.248 5.82025C14.1482 5.50202 13.9771 5.22525 13.7348 4.97621C13.4781 4.74098 13.1931 4.57496 12.8509 4.4643C12.5087 4.36746 12.081 4.31209 11.5536 4.31209L11.5536 4.31201ZM11.1687 8.5046L5.38072 8.5046L5.38072 6.34598L11.1687 6.34598C11.4965 6.34598 11.7247 6.40127 11.8387 6.49819C11.9528 6.59503 12.0241 6.77488 12.0241 7.03782L12.0241 7.81268C12.0241 8.08937 11.9528 8.26922 11.8387 8.36606C11.7247 8.46289 11.4966 8.50444 11.1687 8.50444L11.1687 8.5046Z" fill="rgb(17,17,17)" fill-rule="evenodd" />
</svg>
