<svg viewBox="0 0 16.7514 14.3089" xmlns="http://www.w3.org/2000/svg" xmlns:xlink="http://www.w3.org/1999/xlink" width="16.751434" height="14.308853" fill="none" customFrame="#000000">
	<path d="M15.0147 0.0986433C15.2207 0.0115594 15.4463 -0.0186557 15.668 0.0111491C15.8897 0.040954 16.0993 0.129687 16.275 0.268094C16.4506 0.406501 16.586 0.589511 16.6668 0.798039C16.7477 1.00657 16.7712 1.23297 16.7347 1.45364L14.8437 12.9176C14.6607 14.0236 13.4467 14.6576 12.4337 14.1066C11.3285 13.5113 10.2467 12.8735 9.19071 12.1946C8.62371 11.8246 6.88871 10.6376 7.10271 9.79264C7.28471 9.06964 10.2017 6.35464 11.8677 4.74064C12.5227 4.10564 12.2247 3.73964 11.4517 4.32364C9.53371 5.77264 6.45371 7.97464 5.43471 8.59364C4.53671 9.14164 4.06671 9.23464 3.50771 9.14164C2.48571 8.97164 1.53771 8.70764 0.764714 8.38664C-0.280286 7.95364 -0.229286 6.51664 0.764714 6.09864L15.0147 0.0986433Z" fill="rgb(17,17,17)" fill-rule="evenodd" />
</svg>
