<svg viewBox="0 0 16.875 15" xmlns="http://www.w3.org/2000/svg" xmlns:xlink="http://www.w3.org/1999/xlink" width="16.875000" height="15.000000" fill="none" customFrame="#000000">
	<path d="M1.18687 1.054C0 2.11 0 3.806 0 7.2L0 7.8C0 11.194 0 12.891 1.18687 13.946C2.37262 15 4.28063 15 8.1 15L8.775 15C12.5933 15 14.5024 15 15.6892 13.946C16.875 12.891 16.875 11.194 16.875 7.8L16.875 7.2C16.875 3.806 16.875 2.109 15.6892 1.054C14.5024 0 12.5933 0 8.775 0L8.1 0C4.28175 0 2.37262 0 1.18687 1.054ZM2.84737 4.563C2.93963 8.463 5.13338 10.806 8.97863 10.806L9.19688 10.806L9.19688 8.575C10.6099 8.7 11.6786 9.619 12.1084 10.806L14.1053 10.806C13.5563 9.031 12.114 8.05 11.214 7.675C12.114 7.213 13.3808 6.088 13.6834 4.563L11.8688 4.563C11.475 5.8 10.3084 6.925 9.19688 7.03L9.19688 4.563L7.38338 4.563L7.38338 8.888C6.25838 8.638 4.8375 7.425 4.7745 4.563L2.84737 4.563Z" fill="rgb(17,17,17)" fill-rule="evenodd" />
</svg>
