<svg viewBox="0 0 19.9997 14.9992" xmlns="http://www.w3.org/2000/svg" xmlns:xlink="http://www.w3.org/1999/xlink" width="19.999725" height="14.999176" fill="none" customFrame="#000000">
	<path d="M7.98783 10.2711L7.98783 4.25827C9.98083 5.26327 11.5238 6.23292 13.3478 7.2797C11.8428 8.17327 9.98083 9.17613 7.98783 10.2711ZM19.0908 1.26792C18.7468 0.783631 18.1608 0.405417 17.5378 0.28006C15.7048 -0.0927971 4.27083 -0.0938686 2.43883 0.28006C1.93883 0.380774 1.49383 0.622917 1.11083 1.00113C-0.500173 2.60399 0.00482747 11.199 0.392828 12.5897C0.556828 13.1929 0.767828 13.6268 1.03283 13.9129C1.37583 14.2901 1.84483 14.5493 2.38383 14.6661C3.89383 15.0004 11.6678 15.1868 17.5058 14.7154C18.0305 14.619 18.5154 14.3537 18.8958 13.9547C20.3858 12.3583 20.2838 3.28113 19.0908 1.26792Z" fill="rgb(17,17,17)" fill-rule="evenodd" />
</svg>
